<svg data-v-fde0c5aa="" xmlns="http://www.w3.org/2000/svg" viewBox="0 0 300 300" class="iconAbove"><!----><defs data-v-fde0c5aa=""><!----></defs><rect data-v-fde0c5aa="" fill="transparent" x="0" y="0" width="300px" height="300px" class="logo-background-square"></rect><defs data-v-fde0c5aa=""><!----></defs><g data-v-fde0c5aa="" id="b90e906e-f828-4b16-999f-2cf8c8ea3ecc" fill="#000000" transform="matrix(3.674392201111524,0,0,3.674392201111524,16.252120024949715,166.69785089041048)"><path d="M7.48 5.67L7.48 4.31L1.02 4.31L1.02 14L2.55 14L2.55 9.88L7.06 9.88L7.06 8.58L2.55 8.58L2.55 5.67ZM10.44 5.25C10.44 4.75 10.07 4.41 9.53 4.41C8.99 4.41 8.62 4.75 8.62 5.25C8.62 5.74 8.99 6.09 9.53 6.09C10.07 6.09 10.44 5.74 10.44 5.25ZM8.82 7.11L8.82 14L10.25 14L10.25 7.11ZM13.48 12.80L17.93 8.19L17.93 7.11L11.66 7.11L11.66 8.32L16.09 8.32L11.62 12.92L11.62 14L17.96 14L17.96 12.80ZM20.85 12.80L25.30 8.19L25.30 7.11L19.03 7.11L19.03 8.32L23.45 8.32L18.98 12.92L18.98 14L25.33 14L25.33 12.80ZM31.78 7.11L29.65 11.80L27.50 7.11L25.97 7.11L28.98 13.23L27.19 16.76L28.70 16.76L33.28 7.11ZM41.52 4.19C39.44 4.19 38.00 5.28 38.00 7.03C38.00 10.64 43.71 8.88 43.71 11.28C43.71 12.25 42.83 12.88 41.55 12.88C40.10 12.88 39.26 12.07 39.24 10.96L37.72 10.96C37.77 12.85 39.20 14.13 41.48 14.13C43.71 14.13 45.26 13.02 45.26 11.23C45.26 7.52 39.55 9.35 39.55 6.94C39.55 6.01 40.35 5.43 41.48 5.43C42.70 5.43 43.48 6.10 43.53 7.22L45.01 7.22C44.97 5.36 43.54 4.19 41.52 4.19ZM52.88 7.11L51.45 7.11L51.45 11.16C51.45 12.24 50.76 12.94 49.73 12.94C48.69 12.94 48.02 12.24 48.02 11.16L48.02 7.11L46.59 7.11L46.59 11.16C46.59 12.92 47.87 14.13 49.74 14.13C51.60 14.13 52.88 12.92 52.88 11.16ZM62.27 6.99C61.26 6.99 60.47 7.48 60.07 8.27C59.71 7.46 58.97 6.99 58.00 6.99C57.13 6.99 56.41 7.36 56 8.04L56 7.11L54.57 7.11L54.57 14L56 14L56 9.67C56 8.74 56.56 8.13 57.46 8.13C58.37 8.13 58.90 8.74 58.90 9.67L58.90 14L60.34 14L60.34 9.67C60.34 8.74 60.90 8.13 61.80 8.13C62.69 8.13 63.24 8.74 63.24 9.67L63.24 14L64.67 14L64.67 9.49C64.67 7.98 63.69 6.99 62.27 6.99ZM68.92 6.99C67.31 6.99 66.22 7.81 66.22 9.06C66.22 10.68 67.86 10.99 68.89 11.14C69.68 11.28 70.36 11.40 70.36 12.11C70.36 12.68 69.79 13.06 68.99 13.06C68.14 13.06 67.52 12.63 67.49 11.97L66.09 11.97C66.11 13.24 67.28 14.13 68.95 14.13C70.60 14.13 71.78 13.27 71.78 12.03C71.78 10.37 70.04 10.08 69.06 9.90C68.26 9.74 67.63 9.63 67.63 8.92C67.63 8.40 68.17 8.04 68.89 8.04C69.69 8.04 70.24 8.46 70.27 9.07L71.61 9.07C71.61 7.84 70.49 6.99 68.92 6.99Z"></path></g><defs data-v-fde0c5aa=""><linearGradient data-v-fde0c5aa="" gradientTransform="rotate(25)" id="0e84ab44-4e3c-4155-8285-ccf47f0a3edf" x1="0%" y1="0%" x2="100%" y2="0%"><stop data-v-fde0c5aa="" offset="0%" stop-color="#41E296" stop-opacity="1"></stop><stop data-v-fde0c5aa="" offset="100%" stop-color="#00C4EE" stop-opacity="1"></stop></linearGradient></defs><g data-v-fde0c5aa="" id="490328a5-eb8e-4b5b-8e40-228a02443863" stroke="none" fill="url(#0e84ab44-4e3c-4155-8285-ccf47f0a3edf)" transform="matrix(0.9627328882886952,0,0,0.9627328882886952,101.1008731505895,69.24800194934352)"><path d="M89.172 2.567H52.711v46.056h46.056V12.162c0-5.299-4.297-9.595-9.595-9.595zm.08 25.095H62.397v-4.134h26.854v4.134zM2.817 12.162v36.461h46.056V2.567H12.412a9.595 9.595 0 0 0-9.595 9.595zm21.06-1.253h4.807v12.338H40.94v4.723H28.684v12.312h-4.807V27.97H11.622v-4.723h12.256V10.909zM52.711 98.517h36.461c5.298 0 9.595-4.295 9.595-9.595V52.461H52.711v46.056zm8.804-31.461h29.319v4.723H61.515v-4.723zm0 12.059h29.319v4.807H61.515v-4.807zM2.817 88.922c0 5.3 4.295 9.595 9.595 9.595h36.461V52.461H2.817v36.461zm14.274-25.549l9.225 9.194 9.193-9.194 2.914 2.845-9.223 9.225 9.247 9.216-2.948 2.946-9.218-9.247-9.211 9.213-2.841-2.912 9.18-9.183-9.196-9.224 2.878-2.879z"></path></g><!----></svg>